HIERARCHY
ROOT Hips
{
	OFFSET 0.000000 0.000000 0.000000 
	CHANNELS 6 Xposition Yposition Zposition Zrotation Yrotation Xrotation
	JOINT LeftUpLeg
	{
		OFFSET 1.363060 -1.794630 0.839290 
		CHANNELS 3 Zrotation Yrotation Xrotation
		JOINT LeftLeg
		{
			OFFSET 2.448110 -6.726130 0.000000 
			CHANNELS 3 Zrotation Yrotation Xrotation
			JOINT LeftFoot
			{
				OFFSET 2.562200 -7.039590 0.000000 
				CHANNELS 3 Zrotation Yrotation Xrotation
				JOINT LeftToeBase
				{
					OFFSET 0.157640 -0.433110 2.322550 
					CHANNELS 3 Zrotation Yrotation Xrotation
					End Site
					{
						OFFSET 0.000000 0.000000 0.000000 
					}
				}
			}
		}
	}
	JOINT RightUpLeg
	{
		OFFSET -1.305520 -1.794630 0.839290 
		CHANNELS 3 Zrotation Yrotation Xrotation
		JOINT RightLeg
		{
			OFFSET -2.542530 -6.985550 0.000000 
			CHANNELS 3 Zrotation Yrotation Xrotation
			JOINT RightFoot
			{
				OFFSET -2.568260 -7.056230 0.000000 
				CHANNELS 3 Zrotation Yrotation Xrotation
				JOINT RightToeBase
				{
					OFFSET -0.164730 -0.452590 2.363150 
					CHANNELS 3 Zrotation Yrotation Xrotation
					End Site
					{
						OFFSET 0.000000 0.000000 0.000000 
					}
				}
			}
		}
	}
	JOINT Spine
	{
		OFFSET 0.028270 2.035590 -0.193380 
		CHANNELS 3 Zrotation Yrotation Xrotation
		JOINT Spine1
		{
			OFFSET 0.056720 2.048850 -0.042750 
			CHANNELS 3 Zrotation Yrotation Xrotation
			JOINT Neck1
			{
				OFFSET -0.054170 1.746240 0.172020 
				CHANNELS 3 Zrotation Yrotation Xrotation
				JOINT Head
				{
					OFFSET 0.104070 1.761360 -0.123970 
					CHANNELS 3 Zrotation Yrotation Xrotation
					End Site
					{
						OFFSET 0.000000 0.000000 0.000000 
					}
				}
			}
			JOINT LeftArm
			{
				OFFSET 3.362410 1.200890 -0.311210 
				CHANNELS 3 Zrotation Yrotation Xrotation
				JOINT LeftForeArm
				{
					OFFSET 4.983000 -0.000000 -0.000000 
					CHANNELS 3 Zrotation Yrotation Xrotation
					JOINT LeftHand
					{
						OFFSET 3.483560 -0.000000 -0.000000 
						CHANNELS 3 Zrotation Yrotation Xrotation
						JOINT LeftHandIndex1
						{
							OFFSET 0.715260 -0.000000 -0.000000 
							CHANNELS 3 Zrotation Yrotation Xrotation
							End Site
							{
								OFFSET 0.000000 0.000000 0.000000 
							}
						}
					}
				}
			}
			JOINT RightArm
			{
				OFFSET -3.136600 1.374050 -0.404650 
				CHANNELS 3 Zrotation Yrotation Xrotation
				JOINT RightForeArm
				{
					OFFSET -5.241900 -0.000000 -0.000000 
					CHANNELS 3 Zrotation Yrotation Xrotation
					JOINT RightHand
					{
						OFFSET -3.444170 -0.000000 -0.000000 
						CHANNELS 3 Zrotation Yrotation Xrotation
						JOINT RightHandIndex1
						{
							OFFSET -0.622530 -0.000000 -0.000000 
							CHANNELS 3 Zrotation Yrotation Xrotation
							End Site
							{
								OFFSET 0.000000 0.000000 0.000000 
							}
						}
					}
				}
			}
		}
	}
}
MOTION
Frames: 10
Frame Time: 0.041667
2.918604 17.038246 -49.556275 4.040019 14.858445 44.775220 -9.875254 -0.219280 -21.400790 -1.440574 7.714878 20.773245 -8.566772 20.934974 9.703603 1.844900 -8.535200 -24.351800 10.164463 9.967536 -84.693326 -7.958481 -21.248960 49.127747 9.222709 -25.825705 11.962441 -1.014300 -6.407600 17.971800 2.254650 1.496946 -2.557191 9.465975 1.098050 -3.906875 6.153710 -9.593095 4.511414 3.505200 -4.441800 6.217500 -6.599890 -29.647960 10.999480 12.303750 -17.374902 -6.823134 -6.176804 7.946332 2.108069 -7.125000 0.000000 0.000000 20.120732 37.184476 10.752422 -12.197708 12.631579 -8.542266 10.927883 7.443495 7.394246 7.125000 0.000000 0.000000 
2.943195 16.989861 -49.348047 3.591286 13.912865 45.765885 -10.116308 0.421680 -22.096872 -1.368671 7.856234 21.066038 -8.180217 20.487028 10.502274 1.908800 -8.673500 -24.779200 9.785206 11.041998 -85.841234 -8.215920 -21.480117 50.055640 9.091927 -25.475226 11.603786 -0.905200 -6.063100 16.967700 2.199999 2.364671 -2.630465 9.356270 1.536934 -5.013677 6.161920 -9.987136 4.082042 3.272100 -4.634400 5.750700 -4.534967 -31.231671 11.920032 12.214847 -17.517633 -6.591746 -6.426888 7.907440 1.140406 -7.125000 0.000000 0.000000 18.976940 36.202880 9.435482 -11.925753 12.770248 -8.353186 10.933633 7.511919 6.856568 7.125000 0.000000 0.000000 
2.974390 16.931229 -49.156441 3.032357 12.933174 47.705886 -10.321198 0.801773 -23.401457 -1.294889 7.992514 21.241742 -8.014770 20.416786 11.460342 1.902800 -8.660700 -24.739500 9.253552 12.298523 -88.075423 -8.342152 -21.643420 50.800014 8.808376 -24.689743 10.923516 -1.106800 -6.684200 18.783000 2.304547 3.372057 -2.646997 9.439558 2.083062 -5.350352 6.148764 -10.271185 3.541478 3.001700 -4.790600 5.178900 -4.758063 -33.330948 11.648040 12.392043 -17.690280 -6.551496 -6.313862 7.518878 2.991697 -7.125000 0.000000 0.000000 17.271263 34.905544 7.282914 -11.536899 12.960459 -7.992940 10.896260 7.451219 7.143552 7.125000 0.000000 0.000000 
3.002624 16.884438 -48.949238 2.765220 12.303306 49.508872 -10.355939 0.796155 -24.357492 -1.249813 8.075313 21.243555 -7.841653 20.416324 12.740047 1.891100 -8.635400 -24.661300 8.566362 13.222854 -90.011044 -8.483712 -21.778271 51.556726 8.572267 -23.919436 10.000712 -1.311500 -7.254100 20.470300 2.398820 4.278016 -2.673127 9.642151 2.584952 -5.845212 6.186337 -10.741767 2.935410 2.786700 -5.037400 4.610600 -3.792240 -35.344729 11.472673 12.552985 -18.108225 -6.513717 -5.733551 7.955800 2.814626 -7.125000 0.000000 0.000000 15.675147 33.547202 4.456512 -11.147992 13.215648 -7.821931 10.968059 7.718687 8.209622 7.125000 0.000000 0.000000 
3.034388 16.848348 -48.739644 2.596339 11.758816 51.129972 -10.361798 0.511594 -25.054113 -1.212335 8.145267 21.208739 -7.862316 20.680301 13.712716 1.938500 -8.736800 -24.975400 7.806952 13.973815 -91.542720 -8.630380 -21.890840 52.102971 8.495816 -23.656369 9.473680 -1.193300 -6.931700 19.513300 2.462757 5.210051 -2.728559 9.928416 3.041157 -6.334431 6.059114 -11.185836 2.484141 2.436000 -5.287400 4.213200 -1.027550 -37.616795 10.450730 12.501091 -18.511772 -6.190473 -5.807627 7.809994 0.875687 -7.125000 0.000000 0.000000 14.690873 32.056198 1.716110 -11.339854 13.832907 -7.962643 11.039972 8.169800 9.161548 7.125000 0.000000 0.000000 
3.067290 16.832751 -48.515250 2.341554 11.407287 52.576940 -10.187986 0.359391 -25.586863 -1.221470 8.152338 21.039451 -7.528334 20.456946 15.017412 1.915700 -8.688300 -24.825000 7.376348 14.578479 -92.715636 -8.726431 -21.973573 52.589342 8.354222 -23.195972 8.861009 -1.196400 -6.940400 19.538900 2.616813 6.223576 -2.752371 9.819375 3.587354 -7.196546 6.053184 -11.694174 1.785332 2.160300 -5.583100 3.587700 -1.165960 -40.219943 9.446083 12.375122 -18.549988 -5.979095 -6.238188 6.953414 3.142626 -7.125000 0.000000 0.000000 12.519449 30.235854 -0.489946 -10.914436 14.201883 -7.770550 11.018894 8.981311 8.556179 7.125000 0.000000 0.000000 
3.101899 16.827286 -48.282659 2.088174 11.222510 54.118943 -9.777421 -0.087496 -26.029188 -1.294636 8.085584 20.778172 -6.665072 19.438388 16.736981 2.162800 -9.197300 -26.414500 7.082232 15.079642 -93.899446 -8.827775 -22.040964 52.940654 8.323379 -23.107644 8.624381 -0.975600 -6.287800 17.621700 2.759206 7.356114 -2.778420 9.657286 4.198837 -7.939303 5.917545 -12.320196 0.897608 2.046600 -5.964600 3.070400 0.319425 -42.938422 8.954547 12.334324 -18.880221 -5.784137 -6.116878 7.093083 2.752699 -7.125000 0.000000 0.000000 10.246311 28.494694 -2.944977 -10.404810 14.379660 -7.489522 11.133994 9.387635 8.660386 7.125000 0.000000 0.000000 
3.124327 16.810095 -48.044261 1.951454 10.663182 55.991193 -9.636821 -0.654422 -26.729257 -1.497460 7.985978 20.647412 -4.950031 16.837945 18.088831 1.252000 -7.093900 -19.993800 6.088354 15.860745 -95.412984 -8.828609 -22.086484 53.298344 8.108521 -22.353584 7.386903 -1.238400 -7.056600 19.883100 2.881457 8.595365 -2.807883 9.561391 4.862018 -8.430509 5.788777 -12.980068 0.188486 1.642700 -6.356400 2.327800 3.023876 -46.264919 4.374184 11.950239 -19.041158 -5.422423 -5.721030 7.254952 3.867250 -7.125000 0.000000 0.000000 8.147480 26.782869 -5.676149 -10.116479 14.616709 -7.332491 11.291616 9.812601 8.857452 7.125000 0.000000 0.000000 
3.147780 16.783910 -47.805294 1.967684 10.012764 58.056209 -9.713827 -1.044765 -27.646888 -1.635329 7.934519 20.542507 -3.905826 15.242788 18.991017 0.462400 -4.361900 -12.097100 4.826913 16.597271 -97.064008 -8.920479 -22.140293 53.488140 8.259343 -22.684672 6.968682 -1.006300 -6.383200 17.900500 2.949707 10.035394 -2.871327 9.317438 5.619781 -8.327931 5.541743 -13.770566 -0.469076 1.213100 -6.819200 1.713000 10.869589 -49.600064 -4.749119 11.679672 -19.430610 -5.016700 -5.672395 6.970392 3.420689 -7.125000 0.000000 0.000000 6.090149 25.040133 -8.379618 -10.056710 14.921656 -7.345612 11.433470 10.383895 8.877942 7.125000 0.000000 0.000000 
3.177608 16.760799 -47.569743 1.968163 9.728695 60.068380 -9.489959 -0.912098 -28.460632 -1.186840 8.172755 19.849879 -7.277864 21.846371 20.787688 2.188200 -9.247500 -26.572500 3.832811 17.149031 -98.735544 -8.954703 -22.158042 53.680818 8.295416 -22.646323 6.164609 -0.993200 -6.342800 17.782200 3.075772 11.592071 -2.979220 8.832580 6.422284 -8.232242 5.163903 -14.567370 -1.002788 0.700500 -7.303100 1.222300 20.714023 -52.578320 -17.696755 11.226628 -19.495666 -4.670522 -5.452882 6.969285 5.640317 -7.125000 0.000000 0.000000 3.780576 23.087787 -10.444769 -9.997099 15.154137 -7.363810 11.556210 11.071001 8.412659 7.125000 0.000000 0.000000 
